<svg xmlns="http://www.w3.org/2000/svg" viewBox="0 0 40 24" width="40" height="24">
  <rect width="40" height="24" rx="4" fill="#f7f7f7"/>
  <path d="M36,12c0,4.1-1.7,6-5.8,6H9.8C5.7,18,4,16.1,4,12s1.7-6,5.8-6h20.4C34.3,6,36,7.9,36,12z" fill="#006FCF"/>
  <path d="M13.6,12.5h1.8l0.4-1h3l0.4,1h1.8V9h2.1l1.2,1.5L25.4,9h2.1v3.5H26v-2.3l-1.5,1.5l-1.5-1.5v2.3h-3.4l-0.4-1h-3l-0.4,1 h-1.8V12.5z M18.9,10.3H18l0.5-1.1L18.9,10.3z M13.6,11.5v1h1.8v1.2h-1.8v1h2.4l1.1-1.6l1.1,1.6h2.4v-3.2H13.6z M22.7,13.7l-1.5-1.6 l1.5-1.5V13.7z M26,12.5v1.2h1.5v-1.2h1.5v-1h-1.5V9.3H26v2.3h-1.5v1H26z" fill="#FFFFFF"/>
</svg> 