<svg xmlns="http://www.w3.org/2000/svg" width="38" height="24" viewBox="0 0 38 24" role="img" aria-labelledby="pi-apple_pay"><title id="pi-apple_pay">Apple Pay</title><path fill="#000" d="M35 0H3C1.3 0 0 1.3 0 3v18c0 1.7 1.4 3 3 3h32c1.7 0 3-1.3 3-3V3c0-1.7-1.4-3-3-3z"/><path fill="#FFF" d="M15.3 10.9c.4-.5.7-1.1.6-1.8-.6 0-1.3.4-1.7.8-.4.5-.7 1.1-.6 1.8.6 0 1.3-.4 1.7-.8zm.9 1c-.8 0-1.6.5-2 .5-.4 0-1-.5-1.7-.5-.8 0-1.7.5-2 1.4-.9 1.6-.2 3.8.7 5 .4.7.9 1.3 1.7 1.3.7 0 .9-.5 1.7-.5.7 0 1 .5 1.7.5.7 0 1.2-.6 1.7-1.2.5-.7.7-1.4.7-1.5-.1 0-1.4-.5-1.4-2 0-1.3 1-1.9 1.1-2-.5-.2-1.3-.4-1.8-.4zm7.4-1.4c-1.6 0-2.7 1-2.7 2.6v.2c0 1.6 1.1 2.6 2.9 2.6 1 0 1.9-.5 2.3-1.4l-1-.1c-.2.4-.6.8-1.2.8-.7 0-1.2-.5-1.2-1.2h3.1v-.4c0-1.4-.8-2.5-2.5-2.5zm.1 1.1c.7 0 1.3.5 1.5 1.2h-2.9c.1-.7.7-1.2 1.4-1.2zm8.8 3.2v-1.2h-1.1V13h-1l0 1.7h-.7v1.2h.7v2.7c0 1.2.5 1.6 1.7 1.6.3 0 .6-.1.8-.1v-1.2c-.1 0-.2.1-.5.1-.3 0-.5-.2-.5-.6v-2.5h1.7z M19.4 8.8h-2.6c-.1 0-.3.1-.3.3v7h2.6c1.5 0 2.5-1 2.5-2.5v-2.5c0-1.5-1-2.3-2.5-2.3zm1.1 4.7c0 .7-.4 1.1-1.1 1.1h-1.1V10h1.1c.7 0 1.1.4 1.1 1.1v2.4z"/></svg> 