<svg xmlns="http://www.w3.org/2000/svg" viewBox="0 0 40 24" width="40" height="24">
  <rect width="40" height="24" rx="4" fill="#f7f7f7"/>
  <path d="M8.8,9.2c0.4-0.5,0.7-1.2,0.6-1.9c-0.6,0-1.3,0.4-1.7,0.9c-0.4,0.4-0.7,1.1-0.6,1.8C7.7,10.1,8.4,9.7,8.8,9.2z M9.4,10.3 c-0.9,0-1.7,0.5-2.1,0.5c-0.4,0-1.1-0.5-1.8-0.5c-0.9,0-1.8,0.5-2.2,1.4c-1,1.7-0.2,4.1,0.7,5.4c0.5,0.7,1,1.4,1.8,1.4 c0.7,0,1-0.5,1.8-0.5c0.8,0,1.1,0.5,1.8,0.5c0.8,0,1.3-0.7,1.8-1.3c0.5-0.8,0.8-1.5,0.8-1.6c0,0-1.5-0.6-1.5-2.2 c0-1.4,1.1-2,1.2-2.1C10.8,10.5,9.9,10.3,9.4,10.3z M18.9,10.5h-2.8c-0.2,0-0.3,0.1-0.3,0.3v7.6c0,0.2,0.1,0.3,0.3,0.3h2.8 c1.6,0,2.7-1.1,2.7-2.7v-2.7C21.6,11.6,20.5,10.5,18.9,10.5z M19.7,16c0,0.7-0.4,1.2-1.2,1.2h-1.2v-5.1h1.2c0.8,0,1.2,0.5,1.2,1.2V16z M26.1,13.1c0.8,0,1.4,0.5,1.6,1.3h-3.1C24.6,13.6,25.3,13.1,26.1,13.1z M27.8,15.8c-0.2,0.5-0.6,0.9-1.2,0.9c-0.7,0-1.3-0.5-1.3-1.3 h3.3v-0.4c0-1.5-0.9-2.8-2.6-2.8c-1.7,0-2.7,1.2-2.7,2.8v0.2c0,1.6,1.1,2.8,2.9,2.8c1.1,0,2-0.6,2.4-1.5L27.8,15.8z M33.1,14.8v-1.3 h-1.2v-1.8h-1.1l0,1.8h-0.8v1.3h0.8v3c0,1.3,0.5,1.7,1.8,1.7c0.4,0,0.7-0.1,0.9-0.1v-1.3c-0.1,0-0.3,0.1-0.6,0.1 c-0.4,0-0.6-0.2-0.6-0.6v-2.8H33.1z" fill="#000000"/>
</svg> 