<svg xmlns="http://www.w3.org/2000/svg" width="38" height="24" viewBox="0 0 38 24"><path d="M35 0H3C1.3 0 0 1.3 0 3v18c0 1.7 1.4 3 3 3h32c1.7 0 3-1.3 3-3V3c0-1.7-1.4-3-3-3z" fill="#F9651D"/><path d="M14.4 14.1c.8 0 1.3-.5 1.3-1.2s-.5-1.2-1.3-1.2c-.9 0-1.4.5-1.4 1.2s.5 1.2 1.4 1.2zm.9 3.8c-.6 0-1-.2-1.4-.4l-.3 1.2h-1.1l1-5.5h1.9l-1 5.5v.2zm3.4-3.8c.8 0 1.3-.5 1.3-1.2s-.5-1.2-1.3-1.2c-.9 0-1.4.5-1.4 1.2s.5 1.2 1.4 1.2zm.9 3.8c-.6 0-1-.2-1.4-.4l-.3 1.2h-1.1l1-5.5h1.9l-1 5.5v.2zm3.4-3.8c.8 0 1.3-.5 1.3-1.2s-.5-1.2-1.3-1.2c-.9 0-1.4.5-1.4 1.2s.5 1.2 1.4 1.2zm.9 3.8c-.6 0-1-.2-1.4-.4l-.3 1.2h-1.1l1-5.5h1.9l-1 5.5v.2zm4.2-3.8c.8 0 1.3-.5 1.3-1.2s-.5-1.2-1.3-1.2c-.9 0-1.4.5-1.4 1.2s.6 1.2 1.4 1.2zm1.1 3.8c-.6 0-1-.2-1.4-.4l-.3 1.2h-1.1l1-5.5h1.9l-.9 5.5v.2zm3.6-5.3c0-.9-.6-1.3-1.6-1.3h-3.3v5.6h1.2V13.9h1.5l1.2 3.9h1.3l-1.3-4c.6-.1.9-.5.9-1.1zm-18 1.5c.8 0 1.3-.5 1.3-1.2s-.5-1.2-1.3-1.2c-.9 0-1.4.5-1.4 1.2s.5 1.2 1.4 1.2zm.9 3.8c-.6 0-1-.2-1.4-.4l-.3 1.2h-1.1l1-5.5h1.9l-1 5.5v.2zm3.4-3.8c.8 0 1.3-.5 1.3-1.2s-.5-1.2-1.3-1.2c-.9 0-1.4.5-1.4 1.2s.5 1.2 1.4 1.2zm.9 3.8c-.6 0-1-.2-1.4-.4l-.3 1.2h-1.1l1-5.5h1.9l-1 5.5v.2z" fill="#fff"/></svg> 