<svg xmlns="http://www.w3.org/2000/svg" viewBox="0 0 40 24" width="40" height="24">
  <rect width="40" height="24" rx="4" fill="#f7f7f7"/>
  <path d="M35,14c0,2.2-1.8,4-4,4H9c-2.2,0-4-1.8-4-4v-4c0-2.2,1.8-4,4-4h22c2.2,0,4,1.8,4,4V14z" fill="#FFFFFF"/>
  <path d="M24.5,12c0,3-2.5,5.5-5.5,5.5h-9V6.5h9C22,6.5,24.5,9,24.5,12z" fill="#F36F24"/>
  <path d="M14,13.5c0-0.8-0.7-1.5-1.5-1.5c-0.8,0-1.5,0.7-1.5,1.5s0.7,1.5,1.5,1.5C13.3,15,14,14.3,14,13.5z M32,10.5v3h-1v-3H32z M30,10.5 v3h-1v-3H30z M28,10.5v3h-1v-3H28z" fill="#000000"/>
</svg> 