<svg xmlns="http://www.w3.org/2000/svg" viewBox="0 0 40 24" width="40" height="24">
  <rect width="40" height="24" rx="4" fill="#f7f7f7"/>
  <path d="M18.5,12.2v-1.7h-0.8c-1.4,0-2.4,1-2.4,2.4v1.3c0,1.4,1.1,2.4,2.4,2.4h0.8v-1.7h-0.8c-0.4,0-0.8-0.3-0.8-0.7V13 c0-0.4,0.3-0.7,0.8-0.7H18.5z M20.2,10.5v4.3c0,0.4,0.3,0.7,0.8,0.7h1.6v-1.7h-0.8v-3.4H20.2z M24.5,10.5h-0.8v5h0.8v-1.5l0.4-0.4 l1.1,1.9h1l-1.6-2.7l1.4-1.6h-1l-1.3,1.6V10.5z M30.3,12.9c0-0.4-0.3-0.7-0.8-0.7h-1.6v-1.7h-0.8v5h0.8v-1.7h1.6 c0.4,0,0.8-0.3,0.8-0.7V12.9z M9.7,12.9c0-1.3,0.9-2.3,2.1-2.3c0.6,0,1.1,0.2,1.5,0.6l-0.5,0.5c-0.3-0.2-0.6-0.4-1-0.4 c-0.8,0-1.4,0.7-1.4,1.5c0,0.8,0.6,1.5,1.4,1.5c0.5,0,0.9-0.2,1.1-0.6l0.5,0.4c-0.4,0.5-1,0.8-1.6,0.8C10.6,15.2,9.7,14.2,9.7,12.9z M15.5,14.5c-0.3,0.4-0.8,0.7-1.4,0.7c-0.8,0-1.5-0.5-1.5-1.3c0-0.8,0.7-1.3,1.5-1.3c0.6,0,1.1,0.3,1.4,0.7l-0.6,0.3 c-0.2-0.3-0.5-0.4-0.8-0.4c-0.4,0-0.8,0.3-0.8,0.7c0,0.4,0.4,0.7,0.8,0.7c0.3,0,0.6-0.1,0.8-0.4L15.5,14.5z" fill="#5F6368"/>
  <path d="M13.7,8.9c0-0.3,0.2-0.6,0.6-0.6c0.3,0,0.6,0.3,0.6,0.6c0,0.3-0.3,0.6-0.6,0.6C13.9,9.5,13.7,9.3,13.7,8.9z M13.8,10.5H14.6v4.3h-0.8V10.5z" fill="#4285F4"/>
</svg> 