<svg xmlns="http://www.w3.org/2000/svg" viewBox="0 0 40 24" width="40" height="24">
  <rect width="40" height="24" rx="4" fill="#f7f7f7"/>
  <path d="M33,12c0,3.8-3.1,7-7,7H16c-3.8,0-7-3.1-7-7s3.1-7,7-7h10C29.9,5,33,8.1,33,12z" fill="#FFFFFF"/>
  <path d="M16.4,14.8h-1.2l-0.6,3.6h1.2l0.6-3.6z M28.9,9.1c-0.4-0.4-1-0.6-1.6-0.6h-4.5c-0.2,0-0.4,0.2-0.5,0.4l-1.4,8.7 c0,0.1,0,0.2,0,0.2c0,0.1,0.1,0.2,0.2,0.3c0.1,0.1,0.2,0.1,0.3,0.1h1.4c0.2,0,0.4-0.1,0.4-0.3l0.4-2.5c0-0.2,0.2-0.3,0.4-0.3h1.4 c1.9,0,3-0.9,3.3-2.7c0.1-0.9,0-1.5-0.3-1.9C29.3,9.4,29.1,9.2,28.9,9.1z M26.9,11.9c-0.2,1-0.9,1-1.6,1h-0.4l0.3-1.8c0-0.1,0.1-0.2,0.2-0.2 h0.2c0.5,0,1,0,1.2,0.3C27,11.3,27,11.6,26.9,11.9z M18.9,13.9h-1.4c-0.1,0-0.3,0.1-0.3,0.3l-0.3,2.2c0,0.1,0,0.2,0,0.2 c0,0.1,0.1,0.2,0.2,0.3c0.1,0.1,0.2,0.1,0.3,0.1h1.2c0.2,0,0.4-0.1,0.4-0.3l0.3-2.2C19.4,14.1,19.2,13.9,18.9,13.9z M22.8,9.1 c-0.4-0.4-1-0.6-1.6-0.6h-4.5c-0.2,0-0.4,0.2-0.5,0.4l-1.4,8.7c0,0.1,0,0.2,0,0.2c0,0.1,0.1,0.2,0.2,0.3c0.1,0.1,0.2,0.1,0.3,0.1h1.4 c0.2,0,0.4-0.1,0.4-0.3l0.4-2.5c0-0.2,0.2-0.3,0.4-0.3h1.4c1.9,0,3-0.9,3.3-2.7c0.1-0.9,0-1.5-0.3-1.9C23.2,9.4,23,9.2,22.8,9.1z M20.8,11.9 c-0.2,1-0.9,1-1.6,1h-0.4l0.3-1.8c0-0.1,0.1-0.2,0.2-0.2h0.2c0.5,0,1,0,1.2,0.3C20.9,11.3,20.9,11.6,20.8,11.9z" fill="#1F264F"/>
  <path d="M25.1,9.4h-4.5c-0.2,0-0.3,0.1-0.3,0.3l-1,6.2c0,0.1,0,0.1,0,0.2c0,0.1,0.1,0.1,0.1,0.2c0.1,0,0.1,0.1,0.2,0.1h1.2 c0.1,0,0.2-0.1,0.3-0.2l0.3-1.7c0-0.1,0.1-0.2,0.3-0.2h1c1.3,0,2.1-0.6,2.3-1.9c0.1-0.5,0-1-0.3-1.3C26,9.5,25.6,9.4,25.1,9.4z M24.5,11.3 c-0.1,0.7-0.6,0.7-1.1,0.7H23l0.2-1.3c0-0.1,0.1-0.1,0.2-0.1h0.1c0.3,0,0.7,0,0.8,0.2C24.5,10.9,24.5,11.1,24.5,11.3z M13.3,15.7h-1.1 c-0.1,0-0.2,0.1-0.2,0.2l-0.5,3.3c0,0.1,0,0.1,0,0.1c0,0.1,0.1,0.1,0.1,0.2c0.1,0,0.1,0.1,0.2,0.1h0.5c0.1,0,0.2-0.1,0.3-0.2l0.6-3.3 C13.5,15.8,13.4,15.7,13.3,15.7z M19,9.4h-4.5c-0.2,0-0.3,0.1-0.3,0.3l-1,6.2c0,0.1,0,0.1,0,0.2c0,0.1,0.1,0.1,0.1,0.2 c0.1,0,0.1,0.1,0.2,0.1h1.1c0.2,0,0.3-0.1,0.3-0.3l0.3-1.7c0-0.1,0.1-0.2,0.3-0.2h1c1.3,0,2.1-0.6,2.3-1.9c0.1-0.5,0-1-0.3-1.3 C19.9,9.5,19.5,9.4,19,9.4z M18.4,11.3c-0.1,0.7-0.6,0.7-1.1,0.7h-0.3l0.2-1.3c0-0.1,0.1-0.1,0.2-0.1h0.1c0.3,0,0.7,0,0.8,0.2 C18.4,10.9,18.5,11.1,18.4,11.3z" fill="#009CDE"/>
</svg> 