<svg xmlns="http://www.w3.org/2000/svg" viewBox="0 0 38 24"><path d="M35 0H3C1.3 0 0 1.3 0 3v18c0 1.7 1.4 3 3 3h32c1.7 0 3-1.3 3-3V3c0-1.7-1.4-3-3-3z" fill="#003087"/><path d="M19.5 6.2c-1.5 0-2.7 1.3-2.7 3 0 1.8 1.2 3 2.7 3 1.5 0 2.7-1.3 2.7-3 .1-1.7-1.1-3-2.7-3zm0 4.8c-.8 0-1.3-.6-1.3-1.8 0-1.2.5-1.8 1.3-1.8s1.3.6 1.3 1.8c0 1.2-.4 1.8-1.3 1.8zm8.6-4.6h-1.5c-.4 0-.6.2-.7.7l-2.2 6.1h1.6l.4-1.1h2.2l.3 1.1H30l-2-7.1zm-.7 4l.7-2.2.4 2.2h-1.1zm-13-.5H13c-.4 0-.6.2-.7.6L11 16.6H9.5l2.7-7.1H14l-1.4 4.8zm-3.9-4.8h-1.6c-.4 0-.6.2-.7.7L9 12.3c-.1.4-.1.7-.2.9l-.4-1.2c-.1-.5-.3-.7-.7-.7H5.8L3.6 16.6h1.7l.8-2.3c.1-.3.2-.6.3-.9l.6 3.2h1.3l-1.6-6.4c0-.5.1-.7.6-.7h1.3l.6 6.4h1.5l.7-6.4c.1-.5.3-.7.7-.7h1.4l-2.2-5.6z" fill="#009CDE"/><path d="M31.3 6.2h-1.6c-.4 0-.6.2-.7.7L26.8 14h1.6l.4-1.1h2.2l.3 1.1H33L31.3 6.2zm-.7 4l.7-2.2.4 2.2h-1.1zM25.5 6.2H24c-.4 0-.6.2-.7.6L22 13.3l-1.4-4.8h-1.7l2.7 7.1h1.6l.9-2.8.8 2.8h1.3l1.8-7.1z" fill="#FFF"/></svg> 