<svg xmlns="http://www.w3.org/2000/svg" viewBox="0 0 40 24" width="40" height="24">
  <rect width="40" height="24" rx="4" fill="#f7f7f7"/>
  <rect x="8" y="6" width="24" height="12" rx="3" fill="#5A31F4"/>
  <path d="M14.5,15.7c0,0.1-0.1,0.2-0.2,0.2h-3c-0.1,0-0.2-0.1-0.2-0.2v-7.3c0-0.1,0.1-0.2,0.2-0.2h3c0.1,0,0.2,0.1,0.2,0.2V15.7z M19.2,15.7c0,0.1-0.1,0.2-0.2,0.2h-3c-0.1,0-0.2-0.1-0.2-0.2v-7.3c0-0.1,0.1-0.2,0.2-0.2h3c0.1,0,0.2,0.1,0.2,0.2V15.7z M24,15.7 c0,0.1-0.1,0.2-0.2,0.2h-3c-0.1,0-0.2-0.1-0.2-0.2v-7.3c0-0.1,0.1-0.2,0.2-0.2h3c0.1,0,0.2,0.1,0.2,0.2V15.7z M28.8,15.7 c0,0.1-0.1,0.2-0.2,0.2h-3c-0.1,0-0.2-0.1-0.2-0.2v-7.3c0-0.1,0.1-0.2,0.2-0.2h3c0.1,0,0.2,0.1,0.2,0.2V15.7z" fill="#FFFFFF"/>
</svg> 