<svg xmlns="http://www.w3.org/2000/svg" viewBox="0 0 38 24"><path d="M35 0H3C1.3 0 0 1.3 0 3v18c0 1.7 1.4 3 3 3h32c1.7 0 3-1.3 3-3V3c0-1.7-1.4-3-3-3z" fill="#5A31F4"/><path fill-rule="evenodd" clip-rule="evenodd" d="M10.4 8.6h1.5l2.2 5.3 2.2-5.3h1.5v7h-1.5V9.9l-1.9 4.7h-.6l-1.9-4.7v5.7h-1.5v-7zm12.4 2.4c0-1.1-1-1.7-2.4-1.7s-2.4.6-2.4 1.7c0 1.1 1 1.7 2.4 1.7 1.4 0 2.4-.6 2.4-1.7zm-5.9 1.1c-.2-.5-.6-.9-1.2-.9-.6 0-1.1.4-1.1 1.3v1.4c0 1.1.5 1.5 1.3 1.5.8 0 1.3-.6 1.3-1.5v-1.8zm3.6 0c-.2-.5-.6-.9-1.2-.9-.6 0-1.1.4-1.1 1.3v1.4c0 1.1.5 1.5 1.3 1.5.8 0 1.3-.6 1.3-1.5v-1.8z" fill="#fff"/></svg> 