<svg xmlns="http://www.w3.org/2000/svg" viewBox="0 0 40 24" width="40" height="24">
  <rect width="40" height="24" rx="4" fill="#f7f7f7"/>
  <path d="M16.3,9.2l-3.2,7.6h-2.1l-1.6-6c-0.1-0.4-0.2-0.5-0.5-0.7c-0.5-0.3-1.4-0.5-2.1-0.7l0-0.2h3.6c0.5,0,0.9,0.3,1,0.8l0.9,4.9l2.3-5.7 L16.3,9.2z M24.7,14.4c0-2.2-3-2.3-3-3.3c0-0.3,0.3-0.6,0.9-0.7c0.3-0.1,1.1-0.1,2,0.2l0.4-1.7c-0.5-0.2-1.1-0.3-1.9-0.3 c-2,0-3.4,1.1-3.4,2.5c0,1.1,1,1.7,1.8,2.1c0.8,0.4,1,0.6,1,0.9c0,0.5-0.6,0.7-1.2,0.7c-1,0-1.6-0.3-2-0.5l-0.4,1.7 c0.5,0.2,1.3,0.4,2.2,0.4C23.2,17,24.7,16,24.7,14.4 M31.4,16.8h1.9l-1.6-7.6h-1.7c-0.4,0-0.7,0.2-0.8,0.6l-2.9,7h2.1l0.4-1.1h2.5 L31.4,16.8z M29.4,14l0.8-2.2l0.5,2.2H29.4z M20.5,9.2l-1.6,7.6h-2l1.6-7.6L20.5,9.2z" fill="#172B85"/>
</svg> 