<svg xmlns="http://www.w3.org/2000/svg" viewBox="0 0 38 24"><path d="M35 0H3C1.3 0 0 1.3 0 3v18c0 1.7 1.4 3 3 3h32c1.7 0 3-1.3 3-3V3c0-1.7-1.4-3-3-3z" fill="#0070ba"/><path d="M30.5 14.2c.2 0 .4.1.5.2.1.2.2.4.2.6 0 .4-.1.7-.4.9-.3.2-.6.3-1 .3H27c-.4 0-.7-.1-1-.3-.3-.2-.4-.5-.4-.9 0-.2.1-.4.2-.6.1-.2.3-.2.5-.2h2.2v-2.3c0-.4.1-.7.4-.9s.6-.3 1-.3.7.1 1 .3c.3.2.4.5.4.9v2.3zm-8.3 0c.2 0 .4.1.5.2.1.2.2.4.2.6 0 .4-.1.7-.4.9-.3.2-.6.3-1 .3h-2.9c-.4 0-.7-.1-1-.3-.3-.2-.4-.5-.4-.9 0-.2.1-.4.2-.6.1-.2.3-.2.5-.2h2.2V9.8h-1.9c-.2 0-.4-.1-.5-.2-.1-.2-.2-.4-.2-.6s.1-.5.4-.7.6-.3 1-.3h3.1c.4 0 .7.1 1 .3.3.2.4.5.4.9v6.2zm-8.7 0c.2 0 .4.1.5.2.1.2.2.4.2.6 0 .4-.1.7-.4.9-.3.2-.6.3-1 .3H9.2c-.4 0-.7-.1-1-.3-.3-.2-.4-.5-.4-.9 0-.2.1-.4.2-.6.1-.2.3-.2.5-.2h2.2v-2.3c0-.4.1-.7.4-.9s.6-.3 1-.3.7.1 1 .3c.3.2.4.5.4.9v2.3z" fill="#fff"/></svg> 