<svg width="120" height="120" viewBox="0 0 120 120" fill="none" xmlns="http://www.w3.org/2000/svg">
  <circle cx="60" cy="60" r="58" fill="#FFF5F5" stroke="#FF5A36" stroke-width="1.5"/>
  <path d="M69.5 42.9091C69.5 41.3037 68.1965 40 66.5909 40H54.4091C52.8035 40 51.5 41.3037 51.5 42.9091V61.2727C51.5 62.8782 52.8035 64.1818 54.4091 64.1818H66.5909C68.1965 64.1818 69.5 62.8782 69.5 61.2727V42.9091Z" fill="#FEE2E2"/>
  <path d="M58 64V80" stroke="#FF5A36" stroke-width="2" stroke-linecap="round"/>
  <path d="M63 64V80" stroke="#FF5A36" stroke-width="2" stroke-linecap="round"/>
  <path d="M53 80H68" stroke="#FF5A36" stroke-width="2" stroke-linecap="round"/>
  <path d="M58 51.5C58 52.3284 57.3284 53 56.5 53C55.6716 53 55 52.3284 55 51.5C55 50.6716 55.6716 50 56.5 50C57.3284 50 58 50.6716 58 51.5Z" fill="#FF5A36"/>
  <path d="M66 46.5C66 47.3284 65.3284 48 64.5 48C63.6716 48 63 47.3284 63 46.5C63 45.6716 63.6716 45 64.5 45C65.3284 45 66 45.6716 66 46.5Z" fill="#FF5A36"/>
  <path d="M60 57.5C60 58.3284 59.3284 59 58.5 59C57.6716 59 57 58.3284 57 57.5C57 56.6716 57.6716 56 58.5 56C59.3284 56 60 56.6716 60 57.5Z" fill="#FF5A36"/>
  <path d="M43 52C43 48.134 46.134 45 50 45V59C46.134 59 43 55.866 43 52Z" fill="#FF5A36"/>
  <path d="M78 52C78 55.866 74.866 59 71 59V45C74.866 45 78 48.134 78 52Z" fill="#FF5A36"/>
  <circle cx="60" cy="60" r="53" stroke="#FF5A36" stroke-width="0.5" stroke-dasharray="2 2"/>
  <text x="60" y="95" text-anchor="middle" font-family="Arial, sans-serif" font-size="9" font-weight="bold" fill="#444444">SCIENCE-BACKED</text>
</svg> 